# xmcd
# 
# Track frame offsets:
#     150
#     15427
#     32981
#     50831
#     67216
#     85693
#     102179
#     122767
#     138077
#     155827
#     173545
#     190094
#     204871
# 
# Disc length: 3002
# 
# Revision: 1
# Processed by: cddbd v1.5.2PL0 Copyright (c) Steve Scherf et al.
# Submitted via: BonkEnc v1.0.8
# 
DISCID=aa0bb80d
DTITLE=матаса хеодыяидоу (BY DJ ZRAF) - матаса
DYEAR=2007
DGENRE=каийа
TTITLE0=паки
TTITLE1=дем хекы типота
TTITLE2=ма л' ацапас
TTITLE3=ма текеиымоуле еды
TTITLE4=хаула
TTITLE5=йакгмувта с' ацапы
TTITLE6=оуте лиа кенг
TTITLE7=йака поу ежуцес
TTITLE8=амоине лоу тгм йаядиа соу
TTITLE9=сам лиа таимиа
TTITLE10=ока та 'сбгса
TTITLE11=ацапг поу сйотымеи
TTITLE12=немгтеиа лоу
EXTD=
EXTT0=
EXTT1=
EXTT2=
EXTT3=
EXTT4=
EXTT5=
EXTT6=
EXTT7=
EXTT8=
EXTT9=
EXTT10=
EXTT11=
EXTT12=
PLAYORDER=
